<svg width="1200" height="50" viewBox="0 0 1200 50" fill="none" xmlns="http://www.w3.org/2000/svg">
<path d="M69.65 8C60.45 8 53 15.4667 53 24.6667C53 33.8667 60.45 41.3333 69.65 41.3333C78.8667 41.3333 86.3333 33.8667 86.3333 24.6667C86.3333 15.4667 78.8667 8 69.65 8ZM81.2 18H76.2833C75.75 15.9167 74.9833 13.9167 73.9833 12.0667C77.05 13.1167 79.6 15.25 81.2 18ZM69.6667 11.4C71.05 13.4 72.1333 15.6167 72.85 18H66.4833C67.2 15.6167 68.2833 13.4 69.6667 11.4ZM56.7667 28C56.5 26.9333 56.3333 25.8167 56.3333 24.6667C56.3333 23.5167 56.5 22.4 56.7667 21.3333H62.4C62.2667 22.4333 62.1667 23.5333 62.1667 24.6667C62.1667 25.8 62.2667 26.9 62.4 28H56.7667ZM58.1333 31.3333H63.05C63.5833 33.4167 64.35 35.4167 65.35 37.2667C62.2833 36.2167 59.7333 34.1 58.1333 31.3333ZM63.05 18H58.1333C59.7333 15.2333 62.2833 13.1167 65.35 12.0667C64.35 13.9167 63.5833 15.9167 63.05 18ZM69.6667 37.9333C68.2833 35.9333 67.2 33.7167 66.4833 31.3333H72.85C72.1333 33.7167 71.05 35.9333 69.6667 37.9333ZM73.5667 28H65.7667C65.6167 26.9 65.5 25.8 65.5 24.6667C65.5 23.5333 65.6167 22.4167 65.7667 21.3333H73.5667C73.7167 22.4167 73.8333 23.5333 73.8333 24.6667C73.8333 25.8 73.7167 26.9 73.5667 28ZM73.9833 37.2667C74.9833 35.4167 75.75 33.4167 76.2833 31.3333H81.2C79.6 34.0833 77.05 36.2167 73.9833 37.2667ZM76.9333 28C77.0667 26.9 77.1667 25.8 77.1667 24.6667C77.1667 23.5333 77.0667 22.4333 76.9333 21.3333H82.5667C82.8333 22.4 83 23.5167 83 24.6667C83 25.8167 82.8333 26.9333 82.5667 28H76.9333Z" fill="#FDB517"/>
<path d="M0 23.8883L2.63 21.1783L15.52 28.8767L37.745 8L40 10.2567L16.6667 41.3333L0 23.8883Z" fill="#FDB517"/>
<path d="M115 7L100 13.6667V23.6667C100 32.9167 106.4 41.5667 115 43.6667C123.6 41.5667 130 32.9167 130 23.6667V13.6667L115 7ZM115 25.3167H126.667C125.783 32.1833 121.2 38.3 115 40.2167V25.3333H103.333V15.8333L115 10.65V25.3167Z" fill="#FDB517"/>
<path d="M163.333 33.6667C165.167 33.6667 166.667 32.1667 166.667 30.3333C166.667 28.5 165.167 27 163.333 27C161.5 27 160 28.5 160 30.3333C160 32.1667 161.5 33.6667 163.333 33.6667ZM173.333 18.6667H171.667V15.3333C171.667 10.7333 167.933 7 163.333 7C158.733 7 155 10.7333 155 15.3333V18.6667H153.333C151.5 18.6667 150 20.1667 150 22V38.6667C150 40.5 151.5 42 153.333 42H173.333C175.167 42 176.667 40.5 176.667 38.6667V22C176.667 20.1667 175.167 18.6667 173.333 18.6667ZM158.167 15.3333C158.167 12.4833 160.483 10.1667 163.333 10.1667C166.183 10.1667 168.5 12.4833 168.5 15.3333V18.6667H158.167V15.3333ZM173.333 38.6667H153.333V22H173.333V38.6667Z" fill="#FDB517"/>
<path d="M225 2C212.304 2 202 12.304 202 25C202 37.696 212.304 48 225 48C237.696 48 248 37.696 248 25C248 12.304 237.696 2 225 2ZM225 8.9C228.818 8.9 231.9 11.982 231.9 15.8C231.9 19.618 228.818 22.7 225 22.7C221.182 22.7 218.1 19.618 218.1 15.8C218.1 11.982 221.182 8.9 225 8.9ZM225 41.56C219.25 41.56 214.167 38.616 211.2 34.154C211.269 29.577 220.4 27.07 225 27.07C229.577 27.07 238.731 29.577 238.8 34.154C235.833 38.616 230.75 41.56 225 41.56Z" fill="#FDB517"/>
<g clip-path="url(#clip0)">
<path d="M270.053 35.2222V14.7778C270.053 11.9667 272.348 9.66667 275.211 9.66667H298.421V7.11111C298.421 4.3 296.1 2 293.263 2H257.158C254.295 2 252 4.3 252 7.11111V42.8889C252 45.7 254.295 48 257.158 48H293.263C296.1 48 298.421 45.7 298.421 42.8889V40.3333H275.211C272.348 40.3333 270.053 38.0333 270.053 35.2222ZM277.789 14.7778C276.371 14.7778 275.211 15.9278 275.211 17.3333V32.6667C275.211 34.0722 276.371 35.2222 277.789 35.2222H301V14.7778H277.789ZM285.526 28.8333C283.386 28.8333 281.658 27.1211 281.658 25C281.658 22.8789 283.386 21.1667 285.526 21.1667C287.667 21.1667 289.395 22.8789 289.395 25C289.395 27.1211 287.667 28.8333 285.526 28.8333Z" fill="#0A1A29"/>
</g>
<g clip-path="url(#clip1)">
<path d="M320.053 35.2222V14.7778C320.053 11.9667 322.348 9.66667 325.211 9.66667H348.421V7.11111C348.421 4.3 346.1 2 343.263 2H307.158C304.295 2 302 4.3 302 7.11111V42.8889C302 45.7 304.295 48 307.158 48H343.263C346.1 48 348.421 45.7 348.421 42.8889V40.3333H325.211C322.348 40.3333 320.053 38.0333 320.053 35.2222ZM327.789 14.7778C326.371 14.7778 325.211 15.9278 325.211 17.3333V32.6667C325.211 34.0722 326.371 35.2222 327.789 35.2222H351V14.7778H327.789ZM335.526 28.8333C333.386 28.8333 331.658 27.1211 331.658 25C331.658 22.8789 333.386 21.1667 335.526 21.1667C337.667 21.1667 339.395 22.8789 339.395 25C339.395 27.1211 337.667 28.8333 335.526 28.8333Z" fill="#FDB517"/>
</g>
<path d="M377.3 2V8.98647C385.097 10.1163 391.1 16.803 391.1 24.9424C391.1 27.0175 390.686 28.9774 389.996 30.799L395.976 34.3268C397.264 31.4677 398 28.2857 398 24.9424C398 12.9985 388.915 3.15288 377.3 2ZM375 41.0827C366.099 41.0827 358.9 33.8657 358.9 24.9424C358.9 16.803 364.903 10.1163 372.7 8.98647V2C361.062 3.15288 352 12.9754 352 24.9424C352 37.6702 362.281 48 374.977 48C382.59 48 389.329 44.2877 393.515 38.5694L387.535 35.0416C384.591 38.7308 380.083 41.0827 375 41.0827Z" fill="#0A1A29"/>
<path d="M427.3 2V8.98647C435.097 10.1163 441.1 16.803 441.1 24.9424C441.1 27.0175 440.686 28.9774 439.996 30.799L445.976 34.3268C447.264 31.4677 448 28.2857 448 24.9424C448 12.9985 438.915 3.15288 427.3 2ZM425 41.0827C416.099 41.0827 408.9 33.8657 408.9 24.9424C408.9 16.803 414.903 10.1163 422.7 8.98647V2C411.062 3.15288 402 12.9754 402 24.9424C402 37.6702 412.281 48 424.977 48C432.59 48 439.329 44.2877 443.515 38.5694L437.535 35.0416C434.591 38.7308 430.083 41.0827 425 41.0827Z" fill="#FDB517"/>
<path d="M483.263 3H459.895C457.753 3 456 4.75909 456 6.90909V34.2727H459.895V6.90909H483.263V3ZM489.105 10.8182H467.684C465.542 10.8182 463.789 12.5773 463.789 14.7273V42.0909C463.789 44.2409 465.542 46 467.684 46H489.105C491.247 46 493 44.2409 493 42.0909V14.7273C493 12.5773 491.247 10.8182 489.105 10.8182ZM489.105 42.0909H467.684V14.7273H489.105V42.0909Z" fill="#33C69F"/>
<path d="M533.263 3H509.895C507.753 3 506 4.75909 506 6.90909V34.2727H509.895V6.90909H533.263V3ZM539.105 10.8182H517.684C515.542 10.8182 513.789 12.5773 513.789 14.7273V42.0909C513.789 44.2409 515.542 46 517.684 46H539.105C541.247 46 543 44.2409 543 42.0909V14.7273C543 12.5773 541.247 10.8182 539.105 10.8182ZM539.105 42.0909H517.684V14.7273H539.105V42.0909Z" fill="#B5BBBF"/>
<path d="M1089.64 16.5L1081.27 25H1087.55C1087.55 32.0338 1081.92 37.75 1075 37.75C1072.89 37.75 1070.88 37.2187 1069.15 36.2625L1066.09 39.365C1068.66 41.0225 1071.72 42 1075 42C1084.24 42 1091.73 34.3925 1091.73 25H1098L1089.64 16.5ZM1062.45 25C1062.45 17.9663 1068.08 12.25 1075 12.25C1077.11 12.25 1079.12 12.7812 1080.85 13.7375L1083.91 10.635C1081.34 8.9775 1078.28 8 1075 8C1065.76 8 1058.27 15.6075 1058.27 25H1052L1060.36 33.5L1068.73 25H1062.45Z" fill="#B5BBBF"/>
<path d="M1108 24.3227L1110.24 22.0192L1121.19 28.5628L1140.08 10.8176L1142 12.7358L1122.17 39.151L1108 24.3227Z" fill="#33C69F"/>
<path d="M1175 42C1165.61 42 1158 34.3891 1158 25C1158 15.6109 1165.61 8 1175 8C1184.39 8 1192 15.6109 1192 25C1192 34.3891 1184.39 42 1175 42ZM1173.3 30.1V33.5H1176.7V30.1H1173.3ZM1173.3 16.5V26.7H1176.7V16.5H1173.3Z" fill="#B5BBBF"/>
<path d="M587 37L562.002 12M586.998 12L562 37" stroke="white" stroke-width="3" stroke-linecap="round"/>
<path d="M637 37L612.002 12M636.998 12L612 37" stroke="white" stroke-width="3" stroke-linecap="round"/>
<path d="M674.356 28.4243C674.356 24.5 677.082 23.8433 678.021 22.7811C678.963 21.7155 679.545 20.2418 679.545 18.6137C679.545 15.3627 677.222 12.7273 674.356 12.7273C672.806 12.7273 671.414 13.4979 670.464 14.7197C670.024 15.2846 669.678 15.946 669.455 16.6724" stroke="white" stroke-linecap="round"/>
<path fill-rule="evenodd" clip-rule="evenodd" d="M674.5 35.1515C675.429 35.1515 676.182 34.3985 676.182 33.4697C676.182 32.5408 675.429 31.7878 674.5 31.7878C673.571 31.7878 672.818 32.5408 672.818 33.4697C672.818 34.3985 673.571 35.1515 674.5 35.1515Z" fill="white"/>
<path fill-rule="evenodd" clip-rule="evenodd" d="M674.5 43C684.717 43 693 34.7173 693 24.5C693 14.2827 684.717 6 674.5 6C664.283 6 656 14.2827 656 24.5C656 34.7173 664.283 43 674.5 43Z" stroke="white"/>
<g opacity="0.4">
<path d="M724.999 17.5V25.4167" stroke="white" stroke-width="1.5" stroke-linecap="round"/>
<path fill-rule="evenodd" clip-rule="evenodd" d="M724.999 31.7502C725.874 31.7502 726.583 31.0413 726.583 30.1668C726.583 29.2924 725.874 28.5835 724.999 28.5835C724.125 28.5835 723.416 29.2924 723.416 30.1668C723.416 31.0413 724.125 31.7502 724.999 31.7502Z" fill="white"/>
<path fill-rule="evenodd" clip-rule="evenodd" d="M724.999 39.6667C733.744 39.6667 740.833 32.5778 740.833 23.8333C740.833 15.0888 733.744 8 724.999 8C716.255 8 709.166 15.0888 709.166 23.8333C709.166 32.5778 716.255 39.6667 724.999 39.6667Z" stroke="white" stroke-width="1.5"/>
</g>
<path d="M774.833 17.6665V25.5832" stroke="#33C69F" stroke-width="1.5" stroke-linecap="round"/>
<path fill-rule="evenodd" clip-rule="evenodd" d="M774.833 31.9167C775.708 31.9167 776.417 31.2078 776.417 30.3333C776.417 29.4589 775.708 28.75 774.833 28.75C773.959 28.75 773.25 29.4589 773.25 30.3333C773.25 31.2078 773.959 31.9167 774.833 31.9167Z" fill="#33C69F"/>
<path fill-rule="evenodd" clip-rule="evenodd" d="M774.833 39.8332C783.578 39.8332 790.667 32.7443 790.667 23.9998C790.667 15.2553 783.578 8.1665 774.833 8.1665C766.089 8.1665 759 15.2553 759 23.9998C759 32.7443 766.089 39.8332 774.833 39.8332Z" stroke="#33C69F" stroke-width="1.5"/>
<path d="M825 8C815.616 8 808 15.616 808 25C808 34.384 815.616 42 825 42C834.384 42 842 34.384 842 25C842 15.616 834.384 8 825 8ZM831.137 18.778C832.956 18.778 834.418 20.24 834.418 22.059C834.418 23.878 832.956 25.34 831.137 25.34C829.318 25.34 827.856 23.878 827.856 22.059C827.839 20.24 829.318 18.778 831.137 18.778ZM820.937 16.092C823.147 16.092 824.949 17.894 824.949 20.104C824.949 22.314 823.147 24.116 820.937 24.116C818.727 24.116 816.925 22.314 816.925 20.104C816.925 17.877 818.71 16.092 820.937 16.092ZM820.937 31.613V37.988C816.857 36.713 813.627 33.568 812.199 29.556C813.984 27.652 818.438 26.683 820.937 26.683C821.838 26.683 822.977 26.819 824.167 27.057C821.379 28.536 820.937 30.491 820.937 31.613ZM825 38.6C824.541 38.6 824.099 38.583 823.657 38.532V31.613C823.657 29.199 828.655 27.992 831.137 27.992C832.956 27.992 836.101 28.655 837.665 29.947C835.676 34.996 830.763 38.6 825 38.6Z" fill="#33C69F"/>
<path d="M859.99 42H890.01C893.08 42 894.994 38.6615 893.459 36.0026L878.449 9.99412C876.914 7.33529 873.086 7.33529 871.551 9.99412L856.541 36.0026C855.006 38.6615 856.92 42 859.99 42ZM875 28.0062C873.904 28.0062 873.007 27.1066 873.007 26.0071V22.0088C873.007 20.9093 873.904 20.0097 875 20.0097C876.096 20.0097 876.993 20.9093 876.993 22.0088V26.0071C876.993 27.1066 876.096 28.0062 875 28.0062ZM876.993 36.0026H873.007V32.0044H876.993V36.0026Z" fill="#FDB517"/>
<path d="M940 6H910.25C907.912 6 906 7.9125 906 10.25V40C906 42.3375 907.912 44.25 910.25 44.25H940C942.338 44.25 944.25 42.3375 944.25 40V10.25C944.25 7.9125 942.338 6 940 6ZM918.75 35.75H914.5V20.875H918.75V35.75ZM927.25 35.75H923V14.5H927.25V35.75ZM935.75 35.75H931.5V27.25H935.75V35.75Z" fill="#B5BBBF"/>
<path d="M982.775 14L987.155 18.3796L977.822 27.7126L970.172 20.0626L956 34.2534L958.697 36.95L970.172 25.475L977.822 33.125L989.87 21.0954L994.25 25.475V14H982.775Z" fill="#B5BBBF"/>
<path d="M1030.29 11C1022.58 11 1016.34 17.2453 1016.34 24.9561C1016.34 32.6668 1022.58 38.9122 1030.29 38.9122C1038 38.9122 1044.25 32.6668 1044.25 24.9561C1044.25 17.2453 1038 11 1030.29 11ZM1030.29 35.4231C1024.52 35.4231 1019.83 30.7304 1019.83 24.9561C1019.83 19.1818 1024.52 14.489 1030.29 14.489C1036.07 14.489 1040.76 19.1818 1040.76 24.9561C1040.76 30.7304 1036.07 35.4231 1030.29 35.4231Z" fill="#B5BBBF"/>
<path d="M1009.45 24.9561C1009.45 20.25 1012.32 16.2471 1016.34 14.7685V11C1010.39 12.6048 1006 18.2305 1006 24.9561C1006 31.6817 1010.39 37.3074 1016.34 38.9122V35.1437C1012.32 33.6651 1009.45 29.6622 1009.45 24.9561Z" fill="#B5BBBF"/>
<defs>
<clipPath id="clip0">
<rect width="46" height="46" fill="white" transform="translate(252 2)"/>
</clipPath>
<clipPath id="clip1">
<rect width="46" height="46" fill="white" transform="translate(302 2)"/>
</clipPath>
</defs>
</svg>