<?xml version="1.0" encoding="iso-8859-1"?>
<!-- Generator: Adobe Illustrator 19.0.0, SVG Export Plug-In . SVG Version: 6.00 Build 0)  -->
<svg version="1.1" id="Layer_1" xmlns="http://www.w3.org/2000/svg" xmlns:xlink="http://www.w3.org/1999/xlink" x="0px" y="0px"
	 viewBox="0 0 511.999 511.999" style="enable-background:new 0 0 511.999 511.999;" xml:space="preserve">
<path style="fill:#5DC4FB;" d="M490.679,101.206c-7.723,3.425-15.663,6.316-23.777,8.663c9.606-10.863,16.929-23.645,21.399-37.631
	c1.003-3.135-0.037-6.567-2.613-8.617c-2.573-2.052-6.15-2.298-8.984-0.618c-17.23,10.219-35.819,17.563-55.31,21.857
	c-19.634-19.185-46.301-30.103-73.87-30.103c-58.192,0-105.535,47.341-105.535,105.532c0,4.583,0.291,9.141,0.864,13.634
	c-72.21-6.34-139.343-41.833-185.443-98.382c-1.643-2.015-4.174-3.102-6.765-2.895c-2.593,0.203-4.922,1.666-6.232,3.912
	c-9.35,16.044-14.293,34.393-14.293,53.063c0,25.429,9.078,49.555,25.116,68.408c-4.876-1.689-9.609-3.799-14.125-6.307
	c-2.424-1.349-5.384-1.329-7.792,0.052c-2.41,1.381-3.922,3.922-3.985,6.699c-0.011,0.468-0.011,0.935-0.011,1.41
	c0,37.957,20.428,72.13,51.662,90.756c-2.683-0.268-5.365-0.657-8.029-1.166c-2.747-0.525-5.571,0.438-7.423,2.533
	c-1.855,2.093-2.469,5.011-1.615,7.675c11.561,36.093,41.325,62.641,77.308,70.735c-29.843,18.692-63.972,28.483-99.799,28.483
	c-7.475,0-14.994-0.44-22.352-1.31c-3.655-0.434-7.151,1.724-8.395,5.2c-1.245,3.478,0.074,7.355,3.184,9.349
	c46.025,29.511,99.245,45.109,153.9,45.109c107.446,0,174.661-50.667,212.127-93.172c46.718-53,73.513-123.152,73.513-192.466
	c0-2.896-0.045-5.82-0.134-8.735c18.432-13.887,34.301-30.694,47.215-50.01c1.961-2.933,1.749-6.811-0.523-9.512
	C497.69,100.65,493.908,99.776,490.679,101.206z"/>
<g>
	<path style="fill:#3B87E3;" d="M167.762,467.447c-56.611,0-111.733-16.156-159.404-46.722c-7.151-4.584-10.145-13.372-7.282-21.373
		c2.866-8.005,10.763-12.894,19.202-11.89c6.944,0.822,14.062,1.238,21.147,1.238c25.955,0,51.321-5.547,74.481-16.183
		c-29.035-13.461-51.755-38.673-61.702-69.726c-1.866-5.819-0.635-12.253,3.206-16.976c-24.019-21.766-38.287-53.056-38.287-85.933
		c0-0.558,0.001-1.109,0.014-1.659c0.144-6.292,3.634-12.161,9.111-15.299c1.216-0.698,2.498-1.241,3.818-1.634
		c-7.927-15.929-12.145-33.616-12.145-51.67c0-20.472,5.422-40.596,15.68-58.199c2.997-5.137,8.322-8.481,14.248-8.945
		c5.914-0.481,11.703,1.999,15.467,6.617c41.543,50.96,101.692,84.539,166.494,93.332c-0.013-0.714-0.019-1.428-0.019-2.142
		c0-63.814,51.919-115.731,115.735-115.731c28.106,0,55.785,10.553,76.82,29.128c16.558-4.168,32.398-10.702,47.157-19.455
		c6.442-3.817,14.695-3.246,20.544,1.416c5.846,4.653,8.248,12.572,5.97,19.699c-1.661,5.2-3.671,10.236-6.016,15.091
		c5.867-0.6,11.85,1.689,15.769,6.358c5.157,6.128,5.65,15.071,1.191,21.739c-12.558,18.785-27.809,35.337-45.386,49.265
		c0.016,1.275,0.024,2.547,0.024,3.811c0,71.766-27.723,144.376-76.06,199.211C348.686,414.9,279.017,467.447,167.762,467.447z
		 M27.591,408.624c42.441,25.166,90.696,38.423,140.171,38.423c103.641,0,168.4-48.788,204.475-89.716
		c45.099-51.162,70.965-118.856,70.965-185.723c0-2.792-0.043-5.626-0.129-8.425c-0.101-3.31,1.413-6.463,4.057-8.456
		c15.449-11.639,29.02-25.459,40.426-41.153c-5.834,2.311-11.802,4.352-17.819,6.092c-4.356,1.263-9.026-0.509-11.453-4.344
		c-2.426-3.835-2.028-8.811,0.978-12.211c7.451-8.425,13.254-17.915,17.303-28.281c-16.635,9.186-34.427,15.9-52.975,19.987
		c-3.359,0.743-6.863-0.262-9.323-2.665c-17.69-17.285-42.016-27.199-66.741-27.199c-52.568,0-95.336,42.766-95.336,95.332
		c0,4.126,0.263,8.279,0.782,12.344c0.391,3.061-0.625,6.135-2.764,8.36c-2.139,2.225-5.168,3.359-8.244,3.091
		c-73.662-6.467-142.842-42.687-190.337-99.529c-7.406,13.789-11.306,29.301-11.306,45.069c0,22.655,8.056,44.602,22.685,61.799
		c2.98,3.503,3.247,8.567,0.651,12.365c-2.595,3.798-7.411,5.387-11.758,3.882c-4.22-1.463-8.356-3.215-12.341-5.228
		c0.887,32.443,18.59,62.705,46.651,79.439c4.104,2.448,5.959,7.417,4.462,11.956c-1.497,4.538-5.949,7.42-10.699,6.954
		c-1.703-0.17-3.414-0.386-5.115-0.644c11.055,30.272,37.027,53.218,68.608,60.322c4.033,0.908,7.119,4.159,7.816,8.234
		c0.696,4.075-1.137,8.167-4.64,10.361C115.266,398.713,78.884,409.1,41.428,409.1C36.813,409.1,32.187,408.941,27.591,408.624z"/>
	<path style="fill:#3B87E3;" d="M83.843,164.21c-2.121,0-4.259-0.659-6.091-2.025c-2.32-1.731-4.634-3.513-6.874-5.294
		c-4.409-3.507-5.141-9.922-1.636-14.331c3.506-4.41,9.922-5.141,14.331-1.636c2.079,1.652,4.224,3.305,6.377,4.91
		c4.515,3.369,5.444,9.759,2.077,14.274C90.025,162.792,86.953,164.21,83.843,164.21z"/>
	<path style="fill:#3B87E3;" d="M221.447,216.76c-0.299,0-0.6-0.013-0.904-0.04c-39.613-3.478-78.909-15.749-113.639-35.487
		c-4.898-2.783-6.611-9.009-3.828-13.907c2.783-4.898,9.009-6.611,13.907-3.828c32.201,18.3,68.629,29.677,105.344,32.9
		c5.612,0.493,9.761,5.441,9.268,11.052C231.13,212.76,226.677,216.76,221.447,216.76z"/>
</g>
<g>
</g>
<g>
</g>
<g>
</g>
<g>
</g>
<g>
</g>
<g>
</g>
<g>
</g>
<g>
</g>
<g>
</g>
<g>
</g>
<g>
</g>
<g>
</g>
<g>
</g>
<g>
</g>
<g>
</g>
</svg>
